<svg width="336" height="418" viewBox="0 0 336 418" fill="none" xmlns="http://www.w3.org/2000/svg">
<path d="M0.851807 0.55069H335.767V417.751H0.851807V0.55069Z" fill="url(#paint0_linear)"/>
<path d="M12.1918 363.046L176.552 235.121L335.767 359.721L105.222 379.986L12.1918 363.046Z" fill="url(#paint1_linear)"/>
<g opacity="0.2">
<path opacity="0.2" d="M335.767 293.151C330.482 294.516 325.337 296.791 320.227 298.786C311.512 302.216 301.502 304.841 292.962 300.956C281.902 295.916 278.087 282.476 274.622 270.821C271.122 259.166 264.542 245.971 252.467 244.571C237.522 242.821 224.502 260.846 210.047 256.681C200.422 253.881 196.222 242.786 194.192 232.986C191.847 221.716 190.447 209.956 184.952 199.841C179.492 189.691 168.537 181.396 157.162 183.216C145.472 185.071 138.052 196.201 130.422 205.231C122.792 214.261 110.332 222.591 99.9018 216.991C92.9368 213.246 90.1718 204.881 88.0368 197.286C82.5068 177.826 76.9768 158.331 71.4818 138.871C68.0168 126.691 64.0968 113.741 54.4718 105.516C39.7718 92.9157 16.4268 96.3457 0.851807 107.966V379.006C16.0068 386.391 32.4568 391.081 49.3268 392.446C111.452 397.451 171.617 360.876 233.602 367.281C255.897 369.591 277.422 377.396 299.787 378.936C311.827 379.776 324.672 378.201 335.767 373.616V293.151V293.151Z" fill="white"/>
</g>
<g opacity="0.1">
<path opacity="0.1" d="M197.902 273.901L168.292 308.306L116.702 329.516L110.857 369.801L164.407 373.686L172.352 374.071L335.767 359.721L176.552 235.121L168.292 279.151L197.902 273.901Z" fill="black"/>
</g>
<g opacity="0.2">
<path opacity="0.2" d="M335.767 231.201C335.522 231.551 335.312 231.936 335.067 232.286C329.677 240.301 319.492 246.706 310.602 242.926C301.677 239.146 299.122 227.631 291.877 221.191C286.242 216.221 278.052 214.786 270.702 216.361C263.352 217.971 256.842 222.276 251.487 227.561C242.247 236.626 236.227 248.386 229.822 259.621C223.382 270.856 216.102 282.126 205.252 289.231C194.402 296.336 179.212 298.226 168.782 290.561C160.487 284.436 156.427 273.376 147.327 268.511C136.862 262.911 123.737 267.636 114.042 274.461C89.3318 291.821 73.7218 322.306 45.1968 332.281C30.7768 337.321 14.4318 335.676 0.851807 328.781V354.261C8.09681 362.731 16.9518 369.591 27.1018 373.791C51.5318 383.941 79.0768 384.186 105.222 379.986C131.367 375.786 156.567 367.421 182.187 360.701C207.772 353.981 234.267 348.906 260.587 351.601C277.912 353.351 294.817 358.426 312.142 360.176C319.912 360.946 327.997 360.946 335.767 359.756V231.201Z" fill="white"/>
</g>
<g opacity="0.2">
<path opacity="0.2" d="M335.767 334.381C325.442 337.846 315.537 343.901 305.037 341.871C285.472 338.091 278.122 309.181 258.347 306.871C246.132 305.471 235.842 315.061 226.497 323.041C217.152 331.021 203.782 338.231 193.212 331.966C181.732 325.141 182.152 307.151 171.547 298.996C163.462 292.766 151.492 294.621 142.742 299.871C133.992 305.156 127.377 313.206 119.677 319.961C112.012 326.681 102.247 332.351 92.1318 331.091C80.9318 329.691 72.3568 320.066 67.7368 309.741C63.8868 301.061 62.1018 291.646 58.9168 282.721C55.7318 273.796 50.7618 264.941 42.5718 260.181C29.9018 252.796 13.4168 257.346 1.2368 265.501C1.0968 265.606 0.956807 265.676 0.851807 265.781V417.751H335.767V334.381V334.381Z" fill="white"/>
</g>
<path d="M240.602 195.151C226.707 195.151 215.472 183.916 215.472 170.021C215.472 165.051 216.907 160.396 219.427 156.511C214.667 161.096 211.692 167.501 211.692 174.641C211.692 188.536 222.927 199.771 236.822 199.771C245.712 199.771 253.552 195.151 257.997 188.151C253.482 192.491 247.357 195.151 240.602 195.151Z" fill="white"/>
<path d="M290.644 115.369C290.914 116.021 290.913 116.753 290.644 117.405C290.374 118.057 289.856 118.575 289.204 118.845C288.552 119.115 287.82 119.115 287.168 118.845C286.516 118.575 285.998 118.057 285.728 117.405C285.458 116.753 285.458 116.021 285.728 115.369C285.998 114.717 286.516 114.2 287.168 113.93C287.82 113.66 288.552 113.66 289.204 113.93C289.856 114.2 290.374 114.717 290.644 115.369Z" fill="white"/>
<path d="M303.119 52.1232C304.041 52.3408 304.838 52.9155 305.336 53.721C305.834 54.5264 305.991 55.4965 305.773 56.4179C305.556 57.3394 304.981 58.1366 304.176 58.6343C303.37 59.132 302.4 59.2894 301.479 59.0719C300.557 58.8543 299.76 58.2795 299.262 57.4741C298.765 56.6687 298.607 55.6986 298.825 54.7772C299.042 53.8557 299.617 53.0585 300.422 52.5608C301.228 52.063 302.198 51.9057 303.119 52.1232V52.1232Z" fill="white"/>
<path d="M98.5718 33.8707C98.5718 34.7107 97.9068 35.3757 97.0668 35.3757C96.2268 35.3757 95.5618 34.7107 95.5618 33.8707C95.5618 33.0307 96.2268 32.3657 97.0668 32.3657C97.9068 32.3657 98.5718 33.0307 98.5718 33.8707Z" fill="white"/>
<path d="M41.4868 38.9457C41.4868 39.4099 41.3954 39.8696 41.2177 40.2985C41.0401 40.7274 40.7797 41.1171 40.4514 41.4453C40.1231 41.7736 39.7335 42.034 39.3046 42.2116C38.8757 42.3893 38.416 42.4807 37.9518 42.4807C37.4876 42.4807 37.0279 42.3893 36.599 42.2116C36.1701 42.034 35.7805 41.7736 35.4522 41.4453C35.1239 41.1171 34.8635 40.7274 34.6859 40.2985C34.5082 39.8696 34.4168 39.4099 34.4168 38.9457C34.4168 38.0082 34.7893 37.109 35.4522 36.4461C36.1151 35.7831 37.0143 35.4107 37.9518 35.4107C38.8893 35.4107 39.7885 35.7831 40.4514 36.4461C41.1143 37.109 41.4868 38.0082 41.4868 38.9457Z" fill="white"/>
<path d="M45.6168 160.361C45.6168 161.382 45.2112 162.361 44.4892 163.083C43.7672 163.805 42.7879 164.211 41.7668 164.211C40.7457 164.211 39.7665 163.805 39.0444 163.083C38.3224 162.361 37.9168 161.382 37.9168 160.361C37.9168 159.34 38.3224 158.36 39.0444 157.638C39.7665 156.916 40.7457 156.511 41.7668 156.511C42.7879 156.511 43.7672 156.916 44.4892 157.638C45.2112 158.36 45.6168 159.34 45.6168 160.361Z" fill="white"/>
<path d="M121.182 141.601C121.182 142.896 120.132 143.946 118.837 143.946C117.542 143.946 116.492 142.896 116.492 141.601C116.492 140.306 117.542 139.256 118.837 139.256C120.132 139.291 121.182 140.306 121.182 141.601Z" fill="white"/>
<path d="M228.562 33.8707C228.562 34.2699 228.403 34.6527 228.121 34.9349C227.839 35.2172 227.456 35.3757 227.057 35.3757C226.658 35.3757 226.275 35.2172 225.993 34.9349C225.71 34.6527 225.552 34.2699 225.552 33.8707C225.552 33.4716 225.71 33.0888 225.993 32.8065C226.275 32.5243 226.658 32.3657 227.057 32.3657C227.456 32.3657 227.839 32.5243 228.121 32.8065C228.403 33.0888 228.562 33.4716 228.562 33.8707V33.8707Z" fill="white"/>
<path d="M277.002 21.2357C277.457 22.4957 278.472 23.5107 279.732 23.9657C278.472 24.4207 277.457 25.4357 277.002 26.6957C276.547 25.4357 275.532 24.4207 274.272 23.9657C275.532 23.4757 276.547 22.4957 277.002 21.2357Z" fill="white"/>
<path d="M248.302 138.871C248.757 140.131 249.772 141.146 251.032 141.601C249.772 142.056 248.757 143.071 248.302 144.331C247.847 143.071 246.832 142.056 245.572 141.601C246.867 141.146 247.847 140.166 248.302 138.871Z" fill="white"/>
<path d="M149.987 116.366C150.442 117.626 151.457 118.641 152.717 119.096C151.457 119.551 150.442 120.566 149.987 121.826C149.532 120.566 148.517 119.551 147.257 119.096C148.517 118.606 149.532 117.626 149.987 116.366Z" fill="white"/>
<path d="M313.052 85.1457C313.507 86.4057 314.522 87.4207 315.782 87.8757C314.522 88.3307 313.507 89.3457 313.052 90.6057C312.597 89.3457 311.582 88.3307 310.322 87.8757C311.582 87.3857 312.597 86.4057 313.052 85.1457Z" fill="white"/>
<path d="M104.627 187.241C105.082 188.501 106.097 189.516 107.357 189.971C106.097 190.426 105.082 191.441 104.627 192.701C104.172 191.441 103.157 190.426 101.897 189.971C103.157 189.516 104.172 188.501 104.627 187.241Z" fill="white"/>
<path d="M123.912 18.5057C124.367 19.7657 125.382 20.7807 126.642 21.2357C125.382 21.6907 124.367 22.7057 123.912 23.9657C123.457 22.7057 122.442 21.6907 121.182 21.2357C122.442 20.7457 123.457 19.7657 123.912 18.5057Z" fill="white"/>
<path d="M64.5168 15.7757C64.9718 17.0357 65.9868 18.0507 67.2468 18.5057C65.9868 18.9607 64.9718 19.9757 64.5168 21.2357C64.0618 19.9757 63.0468 18.9607 61.7868 18.5057C63.0468 18.0157 64.0618 17.0357 64.5168 15.7757Z" fill="white"/>
<path d="M64.8318 82.8357C65.2868 84.0957 66.3018 85.1107 67.5618 85.5657C66.3018 86.0207 65.2868 87.0357 64.8318 88.2957C64.3768 87.0357 63.3618 86.0207 62.1018 85.5657C63.3968 85.1107 64.3768 84.0957 64.8318 82.8357Z" fill="white"/>
<path d="M18.2818 82.4157C18.7368 83.6757 19.7518 84.6907 21.0118 85.1457C19.7518 85.6007 18.7368 86.6157 18.2818 87.8757C17.8268 86.6157 16.8118 85.6007 15.5518 85.1457C16.8468 84.6907 17.8268 83.6757 18.2818 82.4157Z" fill="white"/>
<path d="M28.6068 354.996L30.6018 352.196L29.0968 344.216L26.9618 345.441L28.6768 341.871L26.5768 330.706L24.7568 331.336L26.2618 328.921L22.4118 308.306L16.6368 339.246L18.2118 341.486L16.2518 341.206L14.5018 350.656L16.4618 352.441L14.1868 352.196L12.1918 363.046H32.6318L30.8118 353.316L28.6068 354.996Z" fill="url(#paint2_linear)"/>
<path d="M62.2068 348.591L65.8118 343.516L63.1168 329.131L59.2668 331.371L62.3468 324.931L58.6018 304.806L55.2768 305.926L58.0068 301.621L51.0418 264.521L40.6468 320.206L43.5168 324.231L39.9818 323.741L36.7968 340.751L40.3668 343.971L36.2718 343.516L32.6318 363.046H69.4868L66.1968 345.546L62.2068 348.591Z" fill="url(#paint3_linear)"/>
<path d="M101.827 339.631L106.307 333.331L102.982 315.446L98.1868 318.211L102.002 310.231L97.3118 285.206L93.2168 286.606L96.5768 281.251L87.9668 235.121L75.0168 304.316L78.5868 309.321L74.1768 308.726L70.2218 329.901L74.6668 333.891L69.5918 333.296L65.0418 357.586H110.857L106.797 335.851L101.827 339.631Z" fill="url(#paint4_linear)"/>
<path d="M283.477 354.156L284.667 352.476L283.792 347.681L282.497 348.451L283.512 346.316L282.287 339.631L281.167 340.016L282.077 338.581L279.767 326.261L276.302 344.741L277.282 346.071L276.092 345.896L275.042 351.566L276.232 352.616L274.867 352.476L273.677 358.951H285.892L284.807 353.141L283.477 354.156Z" fill="url(#paint5_linear)"/>
<path d="M303.567 350.306L305.702 347.296L304.092 338.686L301.817 340.016L303.637 336.201L301.397 324.161L299.402 324.826L301.047 322.271L296.882 300.081L290.652 333.331L292.402 335.746L290.267 335.466L288.377 345.616L290.512 347.541L288.062 347.261L285.892 358.951H307.907L305.947 348.521L303.567 350.306Z" fill="url(#paint6_linear)"/>
<path d="M326.142 341.066L329.117 336.866L326.912 324.966L323.692 326.821L326.247 321.501L323.132 304.806L320.402 305.751L322.642 302.181L316.902 271.451L308.257 317.546L310.672 320.906L307.732 320.486L305.072 334.591L308.047 337.251L304.652 336.866L301.642 353.036H332.162L329.432 338.581L326.142 341.066Z" fill="url(#paint7_linear)"/>
<path d="M266.292 352.126L268.952 348.346L266.957 337.671L264.087 339.316L266.362 334.556L263.597 319.611L261.147 320.451L263.142 317.231L257.997 289.686L250.262 331.021L252.397 333.996L249.772 333.646L247.392 346.281L250.052 348.661L247.007 348.346L244.312 362.836H271.682L269.232 349.851L266.292 352.126Z" fill="url(#paint8_linear)"/>
<path d="M243.122 362.976L245.817 359.196L243.787 348.521L240.952 350.166L243.227 345.406L240.427 330.461L237.977 331.301L239.972 328.081L234.827 300.536L227.092 341.871L229.227 344.846L226.602 344.496L224.257 357.131L226.882 359.511L223.872 359.196L221.142 373.686H248.512L246.097 360.701L243.122 362.976Z" fill="url(#paint9_linear)"/>
<path d="M335.767 352.651C224.922 336.271 111.627 336.446 0.851807 353.246V417.751H335.767V352.651Z" fill="url(#paint10_linear)"/>
<defs>
<linearGradient id="paint0_linear" x1="168.308" y1="417.751" x2="168.308" y2="0.55069" gradientUnits="userSpaceOnUse">
<stop stop-color="#BB99C7"/>
<stop offset="1" stop-color="#76518A"/>
</linearGradient>
<linearGradient id="paint1_linear" x1="12.1761" y1="307.542" x2="335.765" y2="307.542" gradientUnits="userSpaceOnUse">
<stop stop-color="#F7E1FF"/>
<stop offset="1" stop-color="#B78FCC"/>
</linearGradient>
<linearGradient id="paint2_linear" x1="22.4045" y1="363.037" x2="22.4045" y2="308.323" gradientUnits="userSpaceOnUse">
<stop stop-color="#816A8A"/>
<stop offset="1" stop-color="#412D4D"/>
</linearGradient>
<linearGradient id="paint3_linear" x1="51.0517" y1="363.037" x2="51.0517" y2="264.511" gradientUnits="userSpaceOnUse">
<stop stop-color="#816A8A"/>
<stop offset="1" stop-color="#412D4D"/>
</linearGradient>
<linearGradient id="paint4_linear" x1="87.9544" y1="357.586" x2="87.9544" y2="235.113" gradientUnits="userSpaceOnUse">
<stop stop-color="#816A8A"/>
<stop offset="1" stop-color="#412D4D"/>
</linearGradient>
<linearGradient id="paint5_linear" x1="279.771" y1="358.945" x2="279.771" y2="326.256" gradientUnits="userSpaceOnUse">
<stop stop-color="#816A8A"/>
<stop offset="1" stop-color="#412D4D"/>
</linearGradient>
<linearGradient id="paint6_linear" x1="296.887" y1="358.945" x2="296.887" y2="300.08" gradientUnits="userSpaceOnUse">
<stop stop-color="#816A8A"/>
<stop offset="1" stop-color="#412D4D"/>
</linearGradient>
<linearGradient id="paint7_linear" x1="316.892" y1="353.041" x2="316.892" y2="271.442" gradientUnits="userSpaceOnUse">
<stop stop-color="#816A8A"/>
<stop offset="1" stop-color="#412D4D"/>
</linearGradient>
<linearGradient id="paint8_linear" x1="257.986" y1="362.842" x2="257.986" y2="289.669" gradientUnits="userSpaceOnUse">
<stop stop-color="#816A8A"/>
<stop offset="1" stop-color="#412D4D"/>
</linearGradient>
<linearGradient id="paint9_linear" x1="234.83" y1="373.694" x2="234.83" y2="300.521" gradientUnits="userSpaceOnUse">
<stop stop-color="#816A8A"/>
<stop offset="1" stop-color="#412D4D"/>
</linearGradient>
<linearGradient id="paint10_linear" x1="168.308" y1="417.751" x2="168.308" y2="340.475" gradientUnits="userSpaceOnUse">
<stop stop-color="#BB99C7"/>
<stop offset="1" stop-color="#76518A"/>
</linearGradient>
</defs>
</svg>
