<svg width="336" height="418" viewBox="0 0 336 418" fill="none" xmlns="http://www.w3.org/2000/svg">
<path d="M0.479004 0.332123H335.394V417.532H0.479004V0.332123Z" fill="url(#paint0_linear)"/>
<g opacity="0.2">
<path opacity="0.2" d="M253.844 338.747C247.684 337.032 241.139 338.677 234.874 339.937C228.609 341.162 221.679 341.897 216.149 338.642C203.794 331.397 205.019 308.647 191.054 305.567C179.189 302.977 168.759 318.447 156.964 315.507C150.909 314.002 147.129 308.087 144.259 302.522C142.299 298.707 140.479 294.857 138.764 290.937C130.644 272.142 107.754 264.827 90.149 275.327C87.944 276.622 85.424 277.987 82.974 277.287C80.034 276.447 78.704 273.087 77.794 270.182L72.089 251.947C69.114 242.462 56.689 240.222 50.634 248.097C50.599 248.167 50.564 248.202 50.494 248.272C46.189 253.942 40.099 260.382 33.239 258.457C29.074 257.302 26.344 253.242 24.979 249.147C22.424 241.517 23.369 233.117 21.619 225.242C19.869 217.367 13.569 209.247 5.55397 210.157C3.69897 210.367 2.01897 211.032 0.44397 212.012V352.327H241.699C249.819 352.327 255.174 351.242 263.084 353.097C265.359 347.042 260.004 340.427 253.844 338.747Z" fill="white"/>
</g>
<g opacity="0.2">
<path opacity="0.2" d="M335.394 200.357C334.274 196.612 332.629 193.392 329.164 191.607C323.249 188.562 316.109 192.377 311.209 196.892C289.019 217.507 285.834 252.822 263.924 273.752C258.289 279.142 249.399 283.412 242.959 278.967C237.254 275.012 236.834 266.262 231.514 261.782C225.809 257.022 216.954 259.227 210.969 263.637C205.019 268.047 200.539 274.312 194.379 278.407C188.184 282.502 178.909 283.727 174.009 278.127C169.459 272.912 169.984 263.392 163.579 260.767C158.784 258.807 153.639 262.377 149.789 265.842C136.559 277.777 112.304 294.787 125.569 313.057C137.084 328.912 155.109 340.042 173.344 346.552C197.984 355.337 224.549 356.877 250.694 357.822C278.204 358.802 305.714 359.257 333.259 359.117C333.959 359.117 334.694 359.117 335.394 359.117V200.357Z" fill="white"/>
</g>
<path d="M223.423 198.45C228.353 199.586 232.63 202.634 235.313 206.923C237.996 211.212 238.865 216.391 237.729 221.321C236.594 226.251 233.546 230.528 229.257 233.211C224.968 235.894 219.788 236.763 214.858 235.627C209.928 234.492 205.651 231.444 202.969 227.155C200.286 222.866 199.416 217.686 200.552 212.756C201.688 207.826 204.736 203.55 209.025 200.867C213.314 198.184 218.493 197.314 223.423 198.45V198.45Z" fill="white"/>
<g opacity="0.2">
<path opacity="0.2" d="M96.974 164.062C88.994 163.082 83.219 156.362 77.654 150.552C72.124 144.742 64.634 139.037 56.829 140.892C49.409 142.677 44.299 150.867 36.669 151.147C30.334 151.357 25.259 145.862 22.354 140.227C19.449 134.592 17.629 128.222 13.184 123.672C9.754 120.172 5.274 118.352 0.479004 117.897V170.362H145.379C138.869 165.217 132.429 159.127 124.519 158.532C115.104 157.797 106.354 165.182 96.974 164.062Z" fill="white"/>
</g>
<g opacity="0.2">
<path opacity="0.2" d="M335.394 62.9121C330.984 64.6971 326.959 68.1621 323.599 71.6621C318.069 77.4721 312.259 84.1922 304.279 85.1722C294.899 86.3272 286.149 78.9071 276.734 79.6421C268.824 80.2371 262.384 86.3272 255.874 91.4722H335.394V62.9121Z" fill="white"/>
</g>
<path d="M335.394 342.492L169.424 273.997C156.964 268.852 142.859 269.412 130.854 275.537L0.479004 342.107V417.532H335.394V342.492Z" fill="url(#paint1_linear)"/>
<g opacity="0.2">
<path opacity="0.2" d="M150.034 270.532C146.674 272.702 143.174 275.747 143.664 279.597C144.259 284.217 149.894 286.002 154.479 286.772C166.694 288.802 178.909 290.832 191.124 292.862C203.969 294.997 205.194 312.987 192.734 316.837C190.879 317.432 188.989 317.957 187.169 318.412C157.139 326.392 127.109 334.372 97.079 342.352C92.704 343.507 87.349 345.922 87.594 350.437C87.839 355.162 93.824 356.877 98.514 357.332C134.004 360.832 169.494 364.332 204.984 367.832C208.239 368.147 212.124 368.917 213.314 371.962C215.134 376.617 209.044 380.257 204.214 381.447C160.744 392.227 115.419 392.052 70.899 397.057C47.099 399.717 22.949 404.162 0.408997 412.142V417.497H328.394C330.844 414.767 333.154 411.932 335.324 408.992V342.422L169.354 273.927C163.229 271.407 156.614 270.287 150.034 270.532Z" fill="white"/>
</g>
<path d="M0.479004 378.122V417.532H241.804C242.994 415.677 244.184 413.822 245.304 411.932C168.514 379.592 83.184 368.007 0.479004 378.122Z" fill="#C49346"/>
<path d="M335.394 373.887C252.619 365.417 169.669 364.262 89.099 383.197C58.789 390.337 29.249 400.207 0.479004 412.107V417.532H335.394V373.887Z" fill="#D9A34E"/>
<defs>
<linearGradient id="paint0_linear" x1="167.938" y1="417.532" x2="167.938" y2="0.332123" gradientUnits="userSpaceOnUse">
<stop stop-color="#FDC830"/>
<stop offset="1" stop-color="#F37335"/>
</linearGradient>
<linearGradient id="paint1_linear" x1="167.938" y1="417.532" x2="167.938" y2="270.493" gradientUnits="userSpaceOnUse">
<stop stop-color="#FFB794"/>
<stop offset="1" stop-color="#FFE18D"/>
</linearGradient>
</defs>
</svg>
